<svg width="80" height="80" viewBox="0 0 80 80" fill="none" xmlns="http://www.w3.org/2000/svg">
<path d="M36 60H44V44H60V36H44V20H36V36H20V44H36V60ZM40 80C34.4667 80 29.2667 78.9667 24.4 76.9C19.5333 74.7667 15.3 71.9 11.7 68.3C8.1 64.7 5.23333 60.4667 3.1 55.6C1.03333 50.7333 0 45.5333 0 40C0 34.4667 1.03333 29.2667 3.1 24.4C5.23333 19.5333 8.1 15.3 11.7 11.7C15.3 8.1 19.5333 5.26666 24.4 3.2C29.2667 1.06667 34.4667 0 40 0C45.5333 0 50.7333 1.06667 55.6 3.2C60.4667 5.26666 64.7 8.1 68.3 11.7C71.9 15.3 74.7333 19.5333 76.8 24.4C78.9333 29.2667 80 34.4667 80 40C80 45.5333 78.9333 50.7333 76.8 55.6C74.7333 60.4667 71.9 64.7 68.3 68.3C64.7 71.9 60.4667 74.7667 55.6 76.9C50.7333 78.9667 45.5333 80 40 80ZM40 72C48.9333 72 56.5 68.9 62.7 62.7C68.9 56.5 72 48.9333 72 40C72 31.0667 68.9 23.5 62.7 17.3C56.5 11.1 48.9333 8 40 8C31.0667 8 23.5 11.1 17.3 17.3C11.1 23.5 8 31.0667 8 40C8 48.9333 11.1 56.5 17.3 62.7C23.5 68.9 31.0667 72 40 72Z" fill="#A2D6D7"/>
</svg>
