<svg width="18" height="19" viewBox="0 0 18 19" fill="none" xmlns="http://www.w3.org/2000/svg">
<path d="M11.9167 8.99996C14 8.99996 15.6667 10.6666 15.6667 12.75C15.6667 13.4833 15.4583 14.175 15.0917 14.75L17.6583 17.3333L16.5 18.4916L13.9 15.9333C13.325 16.2916 12.6417 16.5 11.9167 16.5C9.83333 16.5 8.16666 14.8333 8.16666 12.75C8.16666 10.6666 9.83333 8.99996 11.9167 8.99996ZM11.9167 10.6666C11.3641 10.6666 10.8342 10.8861 10.4435 11.2768C10.0528 11.6675 9.83333 12.1974 9.83333 12.75C9.83333 13.3025 10.0528 13.8324 10.4435 14.2231C10.8342 14.6138 11.3641 14.8333 11.9167 14.8333C12.4692 14.8333 12.9991 14.6138 13.3898 14.2231C13.7805 13.8324 14 13.3025 14 12.75C14 12.1974 13.7805 11.6675 13.3898 11.2768C12.9991 10.8861 12.4692 10.6666 11.9167 10.6666ZM10.6667 4.09163L5.66666 2.33329V12.2416L6.5 12.5333V12.75C6.5 13.2833 6.575 13.8 6.71666 14.2833L5.66666 13.9166L1.21666 15.6416L1.08333 15.6666C0.972824 15.6666 0.866843 15.6227 0.788703 15.5446C0.710563 15.4664 0.666664 15.3605 0.666664 15.25V2.64996C0.666664 2.45829 0.791664 2.30829 0.966664 2.24996L5.66666 0.666626L10.6667 2.41663L15.1167 0.666626H15.25C15.3605 0.666626 15.4665 0.710525 15.5446 0.788665C15.6228 0.866805 15.6667 0.972786 15.6667 1.08329V8.84163C14.6591 7.87235 13.3148 7.33165 11.9167 7.33329C11.5 7.33329 11.0833 7.38329 10.6667 7.47496V4.09163Z" fill="#A2D6D7"/>
</svg>
