<svg width="18" height="19" viewBox="0 0 18 19" fill="none" xmlns="http://www.w3.org/2000/svg">
<path d="M11.9167 9.00002C14 9.00002 15.6667 10.6667 15.6667 12.75C15.6667 13.4834 15.4584 14.175 15.0917 14.75L17.6584 17.3334L16.5 18.4917L13.9 15.9334C13.325 16.2917 12.6417 16.5 11.9167 16.5C9.83335 16.5 8.16669 14.8334 8.16669 12.75C8.16669 10.6667 9.83335 9.00002 11.9167 9.00002ZM11.9167 10.6667C11.3642 10.6667 10.8342 10.8862 10.4435 11.2769C10.0528 11.6676 9.83335 12.1975 9.83335 12.75C9.83335 13.3026 10.0528 13.8325 10.4435 14.2232C10.8342 14.6139 11.3642 14.8334 11.9167 14.8334C12.4692 14.8334 12.9991 14.6139 13.3898 14.2232C13.7805 13.8325 14 13.3026 14 12.75C14 12.1975 13.7805 11.6676 13.3898 11.2769C12.9991 10.8862 12.4692 10.6667 11.9167 10.6667ZM10.6667 4.09169L5.66669 2.33335V12.2417L6.50002 12.5334V12.75C6.50002 13.2834 6.57502 13.8 6.71669 14.2834L5.66669 13.9167L1.21669 15.6417L1.08335 15.6667C0.972847 15.6667 0.866866 15.6228 0.788726 15.5446C0.710586 15.4665 0.666687 15.3605 0.666687 15.25V2.65002C0.666687 2.45835 0.791687 2.30835 0.966687 2.25002L5.66669 0.666687L10.6667 2.41669L15.1167 0.666687H15.25C15.3605 0.666687 15.4665 0.710586 15.5446 0.788726C15.6228 0.866866 15.6667 0.972847 15.6667 1.08335V8.84169C14.6591 7.87241 13.3148 7.33171 11.9167 7.33335C11.5 7.33335 11.0834 7.38335 10.6667 7.47502V4.09169Z" fill="#329FA2"/>
</svg>
